<svg width="20" height="20" viewBox="0 0 20 20" fill="none" xmlns="http://www.w3.org/2000/svg">
<mask id="path-1-outside-1_25_14" maskUnits="userSpaceOnUse" x="0" y="0" width="20" height="20" fill="black">
<rect fill="white" width="20" height="20"/>
<path d="M2.63317 1.54545H5.05362L9.89453 9.69318H10.0991L14.94 1.54545H17.3604L11.0536 11.8068V19H8.93999V11.8068L2.63317 1.54545Z"/>
</mask>
<path d="M2.63317 1.54545H5.05362L9.89453 9.69318H10.0991L14.94 1.54545H17.3604L11.0536 11.8068V19H8.93999V11.8068L2.63317 1.54545Z" fill="white"/>
<path d="M2.63317 1.54545V0.545454H0.844772L1.78122 2.06908L2.63317 1.54545ZM5.05362 1.54545L5.91333 1.03467L5.62267 0.545454H5.05362V1.54545ZM9.89453 9.69318L9.03482 10.204L9.32549 10.6932H9.89453V9.69318ZM10.0991 9.69318V10.6932H10.6681L10.9588 10.204L10.0991 9.69318ZM14.94 1.54545V0.545454H14.3709L14.0803 1.03467L14.94 1.54545ZM17.3604 1.54545L18.2124 2.06908L19.1488 0.545454H17.3604V1.54545ZM11.0536 11.8068L10.2017 11.2832L10.0536 11.5241V11.8068H11.0536ZM11.0536 19V20H12.0536V19H11.0536ZM8.93999 19H7.93999V20H8.93999V19ZM8.93999 11.8068H9.93999V11.5241L9.79194 11.2832L8.93999 11.8068ZM2.63317 2.54545H5.05362V0.545454H2.63317V2.54545ZM4.19392 2.05624L9.03482 10.204L10.7542 9.18239L5.91333 1.03467L4.19392 2.05624ZM9.89453 10.6932H10.0991V8.69318H9.89453V10.6932ZM10.9588 10.204L15.7997 2.05624L14.0803 1.03467L9.23937 9.18239L10.9588 10.204ZM14.94 2.54545H17.3604V0.545454H14.94V2.54545ZM16.5085 1.02183L10.2017 11.2832L11.9056 12.3304L18.2124 2.06908L16.5085 1.02183ZM10.0536 11.8068V19H12.0536V11.8068H10.0536ZM11.0536 18H8.93999V20H11.0536V18ZM9.93999 19V11.8068H7.93999V19H9.93999ZM9.79194 11.2832L3.48512 1.02183L1.78122 2.06908L8.08804 12.3304L9.79194 11.2832Z" fill="white" mask="url(#path-1-outside-1_25_14)"/>
</svg>
